<svg width="33" height="32" viewBox="0 0 33 32" fill="none" xmlns="http://www.w3.org/2000/svg">
<path d="M2.39181 10.7598C2.39181 17.1683 2.39103 23.9262 2.39103 30.3348C2.39103 30.4745 2.39103 30.7581 2.39103 30.7581" stroke="#51463E" stroke-linecap="square"/>
<path d="M30.0639 10.7598C30.0639 17.1683 30.0647 23.9262 30.0647 30.3348C30.0647 30.4745 30.0647 30.7581 30.0647 30.7581" stroke="#51463E" stroke-linecap="square"/>
<path d="M32.0169 30.7817C20.6851 30.7817 12.3633 30.7817 1.0315 30.7817" stroke="#51463E" stroke-linecap="round"/>
<path d="M20.8209 30.7551C20.8209 30.5657 20.8209 30.6221 20.8209 30.5657C20.8209 26.606 20.861 22.9092 20.8209 18.9507C14.3918 18.9507 15.0512 18.9507 11.7661 18.9507C11.7578 22.7696 11.7649 26.9363 11.7661 30.7551" stroke="#51463E" stroke-linecap="round"/>
<path d="M0.5017 30.7819L6.36118 30.7619C6.36827 30.6035 6.38243 30.4461 6.38243 30.2877C6.38243 22.5666 6.38243 14.8468 6.38243 7.12571C6.38243 7.00832 6.38243 5.77637 6.38243 5.77637" stroke="#51463E" stroke-linecap="square"/>
<path d="M6.39181 5.77641C6.44429 5.77641 8.7161 5.77632 11.7544 5.77637" stroke="#51463E" stroke-linecap="square"/>
<path d="M21.205 5.77637C23.7573 5.77636 25.7401 5.7765 26.2599 5.77637" stroke="#51463E" stroke-linecap="square"/>
<path d="M30.4259 30.7595H26.2733V30.2594C26.2733 22.5043 26.2599 13.5314 26.2599 5.77637" stroke="#51463E" stroke-linecap="square"/>
<path d="M2.43578 10.7598C2.86873 10.7598 3.30127 10.7598 3.73421 10.7598" stroke="#51463E" stroke-linecap="square"/>
<path d="M30.0199 10.7598C29.587 10.7598 29.1544 10.7598 28.7215 10.7598" stroke="#51463E" stroke-linecap="square"/>
<path d="M18.4381 4.68444C19.2461 4.10446 20.2259 3.76427 21.2809 3.76427H21.4895V3.9717C21.4895 6.75875 19.3562 9.03883 16.6923 9.15251V9.15749H16.2752V9.15251C13.6113 9.03883 11.478 6.75875 11.478 3.9717V3.76427H11.6866C12.7416 3.76427 13.7214 4.10488 14.5294 4.68444C14.6049 3.29299 15.2386 1.94303 16.3361 0.851939L16.4838 0.705078L16.6314 0.851939C17.7285 1.94344 18.3626 3.29299 18.4381 4.68444Z" stroke="#51463E"/>
</svg>
