<svg width="31" height="32" viewBox="0 0 31 32" fill="none" xmlns="http://www.w3.org/2000/svg">
<path d="M0.5 23.6485H4.57671L5.46535 21.5741M30.1237 11.1959L28.7682 14.6463M28.7682 14.6463H26.5546M28.7682 14.6463L23.2125 28.7926L13.3603 28.7913M13.3603 28.7913V23.3682L7.22335 19.6978C5.88846 18.8555 5.36119 17.1991 5.95404 15.7536L9.44047 8.21617M13.3603 28.7913H0.5M21.0777 14.6463H17.3521L14.4187 9.77355C13.8413 8.81289 12.7854 8.21617 11.664 8.21617H4.39924L2.05867 12.8986M3.07206 28.7913V31.3634M21.0764 31.3634V28.7923M14.0033 9.22691L8.84973 20.6705M14.0033 6.93014C15.7754 6.93014 17.2184 5.4885 17.2184 3.71507C17.2184 1.94164 15.7754 0.5 14.0033 0.5C12.2311 0.5 10.7882 1.94164 10.7882 3.71507C10.7882 5.4885 12.2311 6.93014 14.0033 6.93014Z" stroke="#51463E" stroke-linecap="round"/>
</svg>
