<svg width="32" height="32" viewBox="0 0 32 32" fill="none" xmlns="http://www.w3.org/2000/svg">
<path d="M25.9999 29C25.9797 28.7425 25.9999 27.2519 25.9999 27M5.99992 27.0747C5.99992 27.3817 6.00328 28.6972 5.99995 29" stroke="#51463E" stroke-linecap="round"/>
<path d="M2.53556 15.8687C2.53609 18.2661 2.51242 24.3942 2.5202 26.7916C8.4869 26.7903 23.5853 26.8002 29.552 26.7916C29.5503 24.4927 29.552 18.2113 29.552 15.9124" stroke="#51463E" stroke-linecap="round"/>
<path d="M1.00001 15.5856C5.67915 15.5856 11.361 15.5852 16.0402 15.5852C20.7373 15.5852 26.3029 15.5866 31 15.585" stroke="#51463E" stroke-linecap="round"/>
<path d="M16.8872 12.038C16.4633 11.5195 16.0879 10.9642 15.8566 10.3059C15.6024 9.58285 15.6034 8.85303 15.8479 8.13305C16.0161 7.63729 16.212 7.1523 16.4121 6.67083C16.7788 5.78825 16.7554 4.91247 16.4127 4.03106C16.3694 3.91978 16.3383 3.79209 16.3394 3.67236" stroke="#51463E" stroke-linecap="round"/>
<path d="M23.1849 12.038C22.7284 11.5195 22.3241 10.9642 22.0751 10.3059C21.8013 9.58285 21.8024 8.85303 22.0657 8.13305C22.2468 7.63729 22.4578 7.1523 22.6732 6.67083C23.0681 5.78825 23.043 4.91247 22.6739 4.03106C22.6272 3.91978 22.5938 3.79209 22.595 3.67236" stroke="#51463E" stroke-linecap="round"/>
<path d="M10.6835 12.038C10.227 11.5195 9.8227 10.9642 9.57363 10.3059C9.29983 9.58285 9.30097 8.85303 9.56424 8.13305C9.74532 7.63729 9.95639 7.1523 10.1718 6.67083C10.5667 5.78825 10.5415 4.91247 10.1725 4.03106C10.1258 3.91978 10.0924 3.79209 10.0935 3.67236" stroke="#51463E" stroke-linecap="round"/>
</svg>
