<svg width="32" height="32" viewBox="0 0 32 32" fill="none" xmlns="http://www.w3.org/2000/svg">
<path d="M13.211 11.1693C12.9816 11.1735 12.7523 11.1487 12.523 11.1534C11.5531 11.1746 10.6845 11.4629 9.96997 12.1433C9.50598 12.585 9.19401 13.1225 8.99909 13.7278C8.55046 15.1186 8.08542 16.5052 7.66698 17.9056C7.17916 19.5372 6.22099 20.7539 4.65318 21.4512C4.10657 21.6941 3.53983 21.8977 2.96991 22.0803C2.51757 22.2247 2.04723 22.3146 1.58271 22.4188C0.79775 22.595 0.453467 23.3579 0.89203 23.9652C1.08589 24.2335 1.36714 24.3969 1.68494 24.3684C2.33166 24.3102 2.98686 24.2536 3.61451 24.098C5.02925 23.7478 6.3889 23.241 7.68711 22.5633C8.97949 21.8887 9.81795 20.8783 10.158 19.4631C10.265 19.0182 10.3519 18.5685 10.434 18.1183C10.4784 17.8765 10.6172 17.7241 10.8238 17.7379C11.0351 17.7516 11.1628 17.904 11.1569 18.1627C11.1246 19.617 11.1946 21.1095 11.1569 22.5633" stroke="#51463E"/>
<path d="M13.4498 25.3488C14.2382 25.9001 14.633 26.1848 15.6758 26.9914C16.6508 27.7454 17.5421 28.3898 18.634 28.8393C20.4045 29.5681 22.2355 30.0291 24.1558 30.096C24.7569 30.1172 25.351 30.0639 25.9254 29.8749C27.15 29.4716 27.9055 28.4803 27.9146 27.2743C27.9236 26.0825 27.232 25.1542 25.9906 24.7194C24.8308 24.3132 23.6443 24.3239 22.4509 24.5358C20.5367 24.8759 18.7793 25.6461 17.054 26.5039C16.9884 26.5368 16.9258 26.5797 16.8566 26.6022" stroke="#51463E"/>
<path d="M20.9405 22.5069C20.9119 21.07 20.8843 19.6336 20.8589 18.1968C20.8536 17.9053 20.9829 17.7323 21.2127 17.7349C21.4643 17.7381 21.5379 17.9053 21.5846 18.1312C21.7043 18.7083 21.8298 19.2866 21.9919 19.8532C22.3224 21.007 23.0544 21.8418 24.1005 22.418C25.8388 23.375 27.6842 24.0257 29.6429 24.3463C29.8839 24.386 30.1371 24.3871 30.3807 24.3638C30.8839 24.3156 31.2552 23.9448 31.2965 23.4866C31.3394 23.0073 31.0391 22.5984 30.5322 22.4502C29.6778 22.2011 28.8071 21.9979 27.9728 21.6942C26.8457 21.2842 25.8266 20.6737 25.1603 19.6352C24.8833 19.203 24.6667 18.7179 24.503 18.2301C24.0189 16.7858 23.5777 15.3272 23.1137 13.8761C22.5348 12.0662 21.2567 11.1415 19.3568 11.1505C19.1894 11.1515 19.021 11.1706 18.8541 11.1632" stroke="#51463E"/>
<path d="M16.6893 29.6123C16.0488 29.233 15.4867 28.7128 14.9196 28.2208C13.736 27.1939 12.3747 26.4757 10.9438 25.8737C9.71912 25.3585 8.47053 24.919 7.13451 24.7966C6.3675 24.7266 5.61193 24.7861 4.88749 25.0684C3.73747 25.5161 3.09434 26.434 3.10347 27.5999C3.11226 28.6951 3.83752 29.6708 4.94045 30.0862C5.93521 30.4613 6.9713 30.5025 8.01455 30.4697C10.169 30.4013 12.2489 29.9549 14.2675 29.2091" stroke="#51463E"/>
<path d="M16.0384 24C16.5287 23.48 17.0145 22.9812 17.4764 22.4612C17.5719 22.3536 17.6358 22.1571 17.6145 22.0166C17.3132 20.0242 16.9958 18.0337 16.6797 16.0439C16.5255 15.0728 16.3661 14.103 16.2081 13.1262H15.8681C15.652 14.4181 15.4326 15.6934 15.2255 16.9711C14.9501 18.6736 14.681 20.3773 14.4204 22.0817C14.4043 22.1874 14.4488 22.3375 14.5204 22.4148C15.0094 22.9419 15.5139 23.4549 16.0384 24ZM14.7681 11.4034C15.0771 12.0904 15.3429 12.7292 15.6547 13.3506C15.8059 13.6526 16.4558 13.6484 16.6051 13.3481C16.9141 12.725 17.1808 12.0862 17.487 11.4043L14.7681 11.4034Z" stroke="#51463E"/>
<path d="M19.807 5.73981C19.8154 7.9422 18.2095 9.578 16.0294 9.58858C13.9224 9.59863 12.2566 7.93215 12.2523 5.80964C12.2481 3.59719 13.8736 1.92648 16.0331 1.92383C18.2021 1.92119 19.799 3.53529 19.807 5.73981Z" stroke="#51463E"/>
</svg>
