<svg width="32" height="32" viewBox="0 0 32 32" fill="none" xmlns="http://www.w3.org/2000/svg">
<g clip-path="url(#clip0_1312_264)">
<path d="M4.07175 19.9385L9.19521 29.7586L6.09639 31.4755C4.10921 27.6622 2.98726 25.3536 1.00009 21.5404L4.07175 19.9385Z" stroke="#51463E" stroke-width="0.981863"/>
<path d="M19.0019 22.8183L28.1517 18.0783C28.4767 17.9088 28.8412 17.8193 29.2052 17.8193C29.4402 17.8193 29.6741 17.8555 29.9013 17.9272C30.4875 18.1116 30.9666 18.5116 31.2489 19.0533C31.5311 19.5951 31.585 20.2164 31.4005 20.8031C31.216 21.3893 30.8158 21.8675 30.2741 22.1504L17.7683 28.6678C17.4077 28.8556 17.0161 28.9474 16.5711 28.9474C16.2405 28.9474 15.8704 28.8995 15.3697 28.7923L10.4058 27.7272C10.2674 27.6977 10.0845 27.6633 9.90117 27.6633L9.90008 27.6638C9.69617 27.6638 9.51576 27.706 9.34908 27.7927L8.4606 28.2637M4.87 21.2912L9.76009 18.7856C10.0785 18.6194 10.3897 18.5422 10.7398 18.5422C10.7736 18.5422 10.8086 18.5427 10.8442 18.5444L17.5515 18.8344C18.1621 18.8611 18.7274 19.1256 19.1419 19.5784C19.558 20.0313 19.7725 20.6169 19.7458 21.2275C19.7191 21.8387 19.4553 22.4032 19.0019 22.8183C18.5757 23.2089 18.0251 23.4238 17.4517 23.4238C17.4189 23.4238 17.3854 23.4233 17.3527 23.4217L12.8399 23.2266" stroke="#51463E" stroke-width="0.981863"/>
<path d="M24.7679 15.6798L24.7422 14.1346C24.7422 10.9225 22.1297 8.31006 18.9177 8.31006C15.7057 8.31006 13.0929 10.9231 13.0929 14.1346V15.7653L24.7679 15.6798Z" stroke="#51463E" stroke-width="0.981863"/>
<path d="M16.2297 3.64422C16.2297 2.18627 17.4161 1 18.8741 1C20.332 1 21.5182 2.18627 21.5182 3.64422C21.5182 5.10217 20.332 6.28844 18.8741 6.28844C17.4161 6.28844 16.2297 5.10217 16.2297 3.64422Z" stroke="#51463E" stroke-width="0.981863"/>
</g>
<defs>
<clipPath id="clip0_1312_264">
<rect width="32" height="32" fill="white"/>
</clipPath>
</defs>
</svg>
