<svg width="32" height="32" viewBox="0 0 32 32" fill="none" xmlns="http://www.w3.org/2000/svg">
<path d="M22.0877 16.6822C22.942 14.9008 24.1998 13.4424 25.735 12.229C26.7542 11.4237 27.8356 10.6976 28.8948 9.9437C29.4025 9.58196 29.6938 9.11169 29.7046 8.48023L29.7065 8.4796C29.7173 7.75421 29.3118 7.13608 28.6435 6.85938C28.0965 6.63281 27.5741 6.71341 27.0499 6.95584C24.1046 8.31967 21.1459 9.65367 18.2146 11.0461C16.8069 11.715 15.4469 11.7651 14.0336 11.1063C12.117 10.2128 10.1852 9.35159 8.26096 8.47516C7.1256 7.95856 5.99595 7.42864 4.85678 6.92157C3.71317 6.41259 2.52133 7.07071 2.37473 8.29555C2.28842 9.01459 2.60446 9.568 3.1896 9.97226C4.03239 10.5555 4.89486 11.1133 5.72179 11.7188C7.34962 12.9106 8.76232 14.31 9.75679 16.0901C9.88055 16.3116 9.99097 16.5401 10.1077 16.7654" stroke="#51463E"/>
<path d="M16.107 18.9021C16.8457 18.1552 17.698 17.6906 18.7109 17.5681C21.5566 17.2241 23.9587 19.4872 23.8108 22.3634C23.7372 23.799 23.1444 25.0175 22.1169 25.9821C20.26 27.7267 18.3542 29.4186 16.4636 31.1277C16.211 31.3562 15.9737 31.3587 15.7255 31.1328C13.774 29.3501 11.7807 27.6093 9.89643 25.7581C8.55227 24.4374 8.05726 22.7715 8.54402 20.8911C9.40205 17.5776 13.4574 16.4131 15.9451 18.7631C15.9902 18.8057 16.0391 18.845 16.1057 18.9021H16.107Z" stroke="#51463E"/>
<path d="M11.6645 5.2322C11.6791 2.74253 13.6611 0.770085 16.1292 0.78722C18.5776 0.804355 20.517 2.80345 20.4986 5.28868C20.4802 7.73139 18.5002 9.65814 16.0207 9.64481C13.6192 9.63212 11.6499 7.63746 11.6645 5.23156V5.2322Z" stroke="#51463E"/>
<path d="M18.5 24.3118C18.2976 24.3118 13.6841 24.3111 13.5 24.3118M16.0622 26.5C16.0622 25.939 16.0616 22.5261 16.0622 22" stroke="#51463E"/>
</svg>
