<svg width="71" height="71" viewBox="0 0 71 71" fill="none" xmlns="http://www.w3.org/2000/svg">
<path d="M26.9753 23.2314C26.9753 18.6526 30.6978 14.9272 35.2729 14.9272" stroke="#51463E"/>
<path d="M35.2727 14.9272C39.8478 14.9272 43.5697 18.6526 43.5697 23.2314" stroke="#51463E"/>
<path d="M43.5697 23.2314C43.5697 27.8102 39.8478 31.5356 35.2727 31.5356" stroke="#51463E"/>
<path d="M35.2729 31.5356C30.6978 31.5356 26.9753 27.8102 26.9753 23.2314" stroke="#51463E"/>
<path d="M49.0774 51.5439C49.0774 53.9519 47.12 55.91 44.7151 55.91" stroke="#51463E"/>
<path d="M44.7155 55.9099H25.8303" stroke="#51463E"/>
<path d="M25.8309 55.91C23.4248 55.91 21.4685 53.9508 21.4685 51.5439" stroke="#51463E"/>
<path d="M21.4685 51.9975V45.656" stroke="#51463E"/>
<path d="M21.4685 46.8185C21.4685 40.0689 26.956 34.5774 33.7001 34.5774" stroke="#51463E"/>
<path d="M33.7007 34.5774H36.8479" stroke="#51463E"/>
<path d="M36.8469 34.5774C43.5911 34.5774 49.078 40.0689 49.078 46.8185" stroke="#51463E"/>
<path d="M49.0779 45.6558V51.9972" stroke="#51463E"/>
<path d="M10.2049 22.1742L3.7765 24.889C3.72146 24.9127 3.66779 24.9232 3.61013 24.9232C3.55509 24.9232 3.49999 24.9126 3.44888 24.8916C3.34011 24.847 3.25927 24.7683 3.2134 24.6595L0.500244 18.2236M3.61013 24.381L5.20731 20.6759C10.4913 8.4193 22.525 0.5 35.8659 0.5C51.0901 0.5 64.3838 10.8024 68.1947 25.5536" stroke="#51463E" stroke-linecap="round"/>
<path d="M2.72778 45.4465C6.53873 60.1977 19.8324 70.5001 35.0565 70.5001H35.0591C41.6483 70.5001 48.0366 68.5681 53.5316 64.9128C59.0043 61.2719 63.248 56.1568 65.8035 50.1171L67.3904 46.3673M60.7944 48.5793L67.2241 45.863C67.2778 45.8407 67.3328 45.8289 67.3904 45.8289C67.4468 45.8289 67.5005 45.8395 67.553 45.8605C67.6591 45.9038 67.7426 45.9851 67.7872 46.0913L70.5003 52.5272" stroke="#51463E" stroke-linecap="round"/>
</svg>
