<svg width="69" height="71" viewBox="0 0 69 71" fill="none" xmlns="http://www.w3.org/2000/svg">
<path d="M43.5094 70.5V57.1851H26.7479V70.5M9.28524 23.0746L0.500244 20.5252M59.7153 23.336L68.5002 20.7866M15.3356 6.03817L10.0557 0.544196M50.799 6.12781L56.2177 0.5M23.2238 22.6475C24.79 19.6584 27.4299 17.4149 31.9266 16.0063M51.5934 45.6892V28.4729C51.5934 19.6711 47.3241 14.056 41.8611 11.6277C39.7314 10.6904 37.4331 10.2066 35.1097 10.2066C32.7863 10.2066 30.488 10.6904 28.3583 11.6277C22.8953 14.056 18.626 19.6711 18.626 28.4729V45.7033M54.9407 45.6878H60.2773C60.6297 45.6895 60.967 45.8319 61.2155 46.084C61.4641 46.336 61.6036 46.6771 61.6036 47.0326V55.8536C61.6036 56.2073 61.4641 56.5466 61.2155 56.7973C60.967 57.0481 60.6297 57.1897 60.2773 57.1914H49.7682L9.98627 57.1787C9.63284 57.1787 9.29389 57.0378 9.04398 56.7869C8.79407 56.536 8.65368 56.1957 8.65368 55.8409V47.0518C8.65368 46.6951 8.79407 46.353 9.04398 46.1008C9.29389 45.8486 9.63284 45.7069 9.98627 45.7069L54.9407 45.6878Z" stroke="#51463E" stroke-linecap="round"/>
</svg>
