<svg width="70" height="70" viewBox="0 0 70 70" fill="none" xmlns="http://www.w3.org/2000/svg">
<path d="M46.1417 40.5709C46.1417 42.7745 45.4883 44.9286 44.264 46.7608C43.0398 48.5931 41.2997 50.0211 39.2638 50.8644C37.2279 51.7077 34.9877 51.9283 32.8264 51.4984C30.6652 51.0685 28.6799 50.0074 27.1217 48.4492C25.5635 46.891 24.5024 44.9058 24.0725 42.7445C23.6426 40.5832 23.8632 38.343 24.7065 36.3071C25.5498 34.2713 26.9779 32.5312 28.8101 31.3069C30.6423 30.0826 32.7965 29.4292 35.0001 29.4292C37.955 29.4292 40.789 30.603 42.8784 32.6925C44.9679 34.782 46.1417 37.6159 46.1417 40.5709Z" stroke="#51463E" stroke-miterlimit="10"/>
<path d="M35 15.5167C38.0767 15.5167 40.5709 13.0225 40.5709 9.94583C40.5709 6.86915 38.0767 4.375 35 4.375C31.9233 4.375 29.4292 6.86915 29.4292 9.94583C29.4292 13.0225 31.9233 15.5167 35 15.5167Z" stroke="#51463E" stroke-miterlimit="10"/>
<path d="M9.94583 65.6251C13.0225 65.6251 15.5167 63.1309 15.5167 60.0542C15.5167 56.9775 13.0225 54.4834 9.94583 54.4834C6.86915 54.4834 4.375 56.9775 4.375 60.0542C4.375 63.1309 6.86915 65.6251 9.94583 65.6251Z" stroke="#51463E" stroke-miterlimit="10"/>
<path d="M60.0542 65.6251C63.1309 65.6251 65.6251 63.1309 65.6251 60.0542C65.6251 56.9775 63.1309 54.4834 60.0542 54.4834C56.9775 54.4834 54.4834 56.9775 54.4834 60.0542C54.4834 63.1309 56.9775 65.6251 60.0542 65.6251Z" stroke="#51463E" stroke-miterlimit="10"/>
<path d="M26.1918 47.3958L14.3501 56.6416" stroke="#51463E" stroke-miterlimit="10"/>
<path d="M55.65 56.6416L43.8083 47.3958" stroke="#51463E" stroke-miterlimit="10"/>
<path d="M35 29.4291V15.5166" stroke="#51463E" stroke-miterlimit="10"/>
</svg>
