<svg width="71" height="71" viewBox="0 0 71 71" fill="none" xmlns="http://www.w3.org/2000/svg">
<path d="M28.3044 36.4801L32.8724 41.0471C33.0095 41.1841 33.1908 41.2595 33.3855 41.2595H33.4252C33.6199 41.2476 33.8043 41.1582 33.9334 41.0112L42.6844 30.9718M35.5026 70.4978C33.864 70.4978 32.2112 70.3827 30.5884 70.1542C29.4364 69.9993 28.5788 69.0139 28.5847 67.8598V63.6566L27.7002 63.4102C25.4637 62.7845 23.3047 61.8888 21.2827 60.7446L20.4826 60.2916L17.5129 63.2575C17.072 63.7064 16.4897 63.9485 15.87 63.9485C15.3615 63.9485 14.8815 63.7858 14.4763 63.4759C11.8406 61.4915 9.50279 59.1534 7.5225 56.5254C6.81937 55.6017 6.91065 54.2985 7.73296 53.488L10.7046 50.5125L10.2517 49.7118C9.10757 47.6896 8.2131 45.5304 7.58942 43.2937L7.34308 42.4077H3.11841C1.97831 42.4077 0.999046 41.5556 0.844118 40.4253C0.385294 37.1616 0.385294 33.8543 0.844118 30.5945C0.997059 29.4503 1.97618 28.594 3.12423 28.594H7.34502L7.59136 27.7082C8.21306 25.4695 9.10951 23.3101 10.2536 21.2899L10.7065 20.4895L7.73878 17.5217C6.91051 16.7053 6.81946 15.4021 7.51862 14.4843C9.50288 11.8444 11.8387 9.50433 14.4705 7.52187C14.8797 7.21 15.3615 7.04733 15.87 7.04733C16.4897 7.04733 17.0721 7.28966 17.509 7.73065L20.4826 10.7042L21.2827 10.2513C23.3067 9.10709 25.4685 8.21133 27.707 7.58759L28.5925 7.34122V3.14381C28.5845 1.98175 29.4424 0.994616 30.5865 0.841661C32.2152 0.615207 33.8679 0.5 35.5065 0.5C37.1452 0.5 38.7999 0.615207 40.4227 0.841661C41.5727 0.996603 42.4285 1.98189 42.4206 3.13799V7.34122L43.3041 7.58953C45.5406 8.21724 47.6977 9.11699 49.7177 10.2632L50.5208 10.7181L53.4885 7.74641C53.9294 7.29947 54.5107 7.05509 55.1305 7.05509C55.6389 7.05509 56.1199 7.21805 56.5251 7.52793C59.1628 9.51238 61.4986 11.8504 63.4789 14.4805C64.1721 15.3982 64.0809 16.6972 63.2646 17.5057L60.291 20.4756L60.7439 21.2761C61.888 23.2983 62.7835 25.4574 63.4071 27.6942L63.6535 28.5802H67.8549C69.0248 28.5802 70.0034 29.4362 70.1544 30.5725C70.6152 33.8421 70.6152 37.1476 70.1544 40.4093C70.0014 41.5555 69.0243 42.4137 67.8762 42.4137H63.6535L63.4071 43.2998C62.7855 45.5365 61.89 47.6957 60.7459 49.7159L60.293 50.5164L63.2626 53.4861C64.0889 54.3025 64.18 55.6057 63.4809 56.5234C61.4986 59.1594 59.1626 61.4974 56.5348 63.4798C56.1236 63.7937 55.6428 63.9565 55.1343 63.9565C54.5146 63.9565 53.9332 63.7143 53.4982 63.2713L50.5246 60.2977L49.7245 60.7504C47.7025 61.8926 45.5435 62.7887 43.307 63.4124L42.4206 63.6585V67.8501C42.4285 69.0162 41.5707 70.0032 40.4246 70.1542C38.7939 70.3846 37.1394 70.5 35.5007 70.5L35.5026 70.4978ZM35.5007 53.6827C25.488 53.6708 17.3328 45.5165 17.3228 35.5029C17.3228 25.4794 25.4761 17.325 35.5007 17.325C45.5253 17.325 53.6786 25.4793 53.6786 35.5048C53.6786 45.5304 45.5253 53.6827 35.5026 53.6847L35.5007 53.6827Z" stroke="#51463E" stroke-linecap="round"/>
</svg>
