<svg width="71" height="77" viewBox="0 0 71 77" fill="none" xmlns="http://www.w3.org/2000/svg">
<path d="M31.6909 75.6317H5.0833C3.67646 75.6317 2.374 74.9613 1.51123 73.7919C0.629795 72.6209 0.303889 71.1018 0.615405 69.6273C1.38199 65.9494 3.09493 62.6197 5.56696 59.9988C8.00598 57.4133 11.0706 55.6307 14.4313 54.8433C14.6968 54.7817 14.9841 54.794 15.2612 54.8787C17.2767 55.5012 19.4989 55.5012 21.5144 54.8787C21.7915 54.7924 22.0802 54.7817 22.3444 54.8433C25.705 55.6307 28.7696 57.4133 31.2087 59.9988C33.6807 62.6197 35.3936 65.9493 36.1602 69.6288C36.4717 71.1018 36.1459 72.6208 35.263 73.7934C34.3988 74.9613 33.0963 75.6317 31.6909 75.6317Z" stroke="#51463E"/>
<path d="M18.3823 52.2898C16.0323 52.2898 13.8229 51.308 12.162 49.5238C8.73246 45.8428 8.73246 39.8522 12.162 36.1697C15.5916 32.4887 21.173 32.4887 24.604 36.1697C28.035 39.8506 28.0335 45.8413 24.604 49.5238C22.943 51.308 20.7323 52.2898 18.3823 52.2898Z" stroke="#51463E"/>
<path d="M65.0347 42.7142H38.4271C37.0202 42.7142 35.7177 42.0442 34.855 40.8747C33.9735 39.7037 33.6476 38.1843 33.9592 36.7097C34.7257 33.0318 36.4387 29.7021 38.9107 27.0812C41.3497 24.4957 44.4144 22.7131 47.775 21.9258C48.0406 21.8626 48.3279 21.8764 48.6049 21.9611C50.6205 22.5836 52.8412 22.5836 54.8582 21.9611C55.1338 21.8748 55.4211 21.8626 55.6881 21.9258C59.0502 22.7131 62.1148 24.4957 64.5524 27.0812C67.0244 29.7021 68.7374 33.0318 69.504 36.7112C69.8155 38.1842 69.4896 39.7021 68.6067 40.8762C67.7425 42.0441 66.4415 42.7142 65.0347 42.7142Z" stroke="#51463E"/>
<path d="M51.7313 19.3756C49.4775 19.3756 47.2251 18.4557 45.511 16.6145C43.8486 14.8318 42.9336 12.4605 42.9336 9.93819C42.9336 7.4159 43.8486 5.04459 45.511 3.26189C48.9406 -0.420629 54.522 -0.420629 57.953 3.26189C59.6154 5.04459 60.5297 7.41744 60.5297 9.93819C60.5297 12.4589 59.6154 14.8318 57.953 16.6145C56.2375 18.4557 53.9837 19.3756 51.7313 19.3756Z" stroke="#51463E"/>
<path d="M56.9531 52.6372V61.9885C56.9531 64.1379 55.324 65.8867 53.32 65.8867H44.7578" stroke="#51463E"/>
<path d="M16.875 23.6452V14.2939C16.875 12.1445 18.5047 10.396 20.5088 10.396H29.0716" stroke="#51463E"/>
</svg>
