<svg width="71" height="70" viewBox="0 0 71 70" fill="none" xmlns="http://www.w3.org/2000/svg">
<g clip-path="url(#clip0_454_133)">
<path d="M35.6426 46.9689C41.9842 46.9689 47.1251 41.8451 47.1251 35.5247C47.1251 29.2043 41.9842 24.0806 35.6426 24.0806C29.301 24.0806 24.1602 29.2043 24.1602 35.5247C24.1602 41.8451 29.301 46.9689 35.6426 46.9689Z" stroke="#51463E" stroke-linecap="round" stroke-linejoin="round"/>
<path d="M10.5248 19.7886C15.6774 19.7886 19.8543 15.6256 19.8543 10.4903C19.8543 5.35491 15.6774 1.19189 10.5248 1.19189C5.37228 1.19189 1.19531 5.35491 1.19531 10.4903C1.19531 15.6256 5.37228 19.7886 10.5248 19.7886Z" stroke="#51463E" stroke-linecap="round" stroke-linejoin="round"/>
<path d="M9.32874 64.4923C13.8207 64.4923 17.4622 60.863 17.4622 56.3861C17.4622 51.9091 13.8207 48.2798 9.32874 48.2798C4.83677 48.2798 1.19531 51.9091 1.19531 56.3861C1.19531 60.863 4.83677 64.4923 9.32874 64.4923Z" stroke="#51463E" stroke-linecap="round" stroke-linejoin="round"/>
<path d="M59.5883 14.4957C63.2743 14.4957 66.2624 11.5175 66.2624 7.8438C66.2624 4.17005 63.2743 1.19189 59.5883 1.19189C55.9022 1.19189 52.9141 4.17005 52.9141 7.8438C52.9141 11.5175 55.9022 14.4957 59.5883 14.4957Z" stroke="#51463E" stroke-linecap="round" stroke-linejoin="round"/>
<path d="M65.4744 34.8569C67.8657 34.8569 69.8042 32.9248 69.8042 30.5415C69.8042 28.1581 67.8657 26.2261 65.4744 26.2261C63.0831 26.2261 61.1445 28.1581 61.1445 30.5415C61.1445 32.9248 63.0831 34.8569 65.4744 34.8569Z" stroke="#51463E" stroke-linecap="round" stroke-linejoin="round"/>
<path d="M53.6323 68.8079C56.922 68.8079 59.5889 66.1499 59.5889 62.8712C59.5889 59.5925 56.922 56.9346 53.6323 56.9346C50.3426 56.9346 47.6758 59.5925 47.6758 62.8712C47.6758 66.1499 50.3426 68.8079 53.6323 68.8079Z" stroke="#51463E" stroke-linecap="round" stroke-linejoin="round"/>
<path d="M27.5803 27.3706L17.0547 17.0947" stroke="#51463E" stroke-linecap="round" stroke-linejoin="round"/>
<path d="M47.125 34.2849L61.1432 31.71" stroke="#51463E" stroke-linecap="round" stroke-linejoin="round"/>
<path d="M43.2969 26.2261L54.7794 12.6362" stroke="#51463E" stroke-linecap="round" stroke-linejoin="round"/>
<path d="M40.9297 45.6812L50.2353 57.9836" stroke="#51463E" stroke-linecap="round" stroke-linejoin="round"/>
<path d="M26.4816 42.415L15.8125 50.7836" stroke="#51463E" stroke-linecap="round" stroke-linejoin="round"/>
</g>
<defs>
<clipPath id="clip0_454_133">
<rect width="71" height="70" fill="white"/>
</clipPath>
</defs>
</svg>
