<svg width="70" height="70" viewBox="0 0 70 70" fill="none" xmlns="http://www.w3.org/2000/svg">
<g clip-path="url(#clip0_454_125)">
<path d="M29.0118 23.0905C32.9038 23.0905 36.0588 19.9355 36.0588 16.0436C36.0588 12.1516 32.9038 8.99658 29.0118 8.99658C25.1199 8.99658 21.9648 12.1516 21.9648 16.0436C21.9648 19.9355 25.1199 23.0905 29.0118 23.0905Z" stroke="#51463E" stroke-linecap="round" stroke-linejoin="round"/>
<path d="M22.2685 39.111L13.3423 51.5841C12.7315 52.4297 11.745 52.9465 10.6879 52.9465C8.15101 52.9465 6.60067 50.1747 7.91611 48.0136L21.1409 26.3794C22.3859 24.3358 24.6174 23.0908 27.0134 23.0908C29.8087 23.0908 32.3456 24.7821 33.4027 27.3895L38.8993 40.9432C39.3926 42.1412 40.4732 42.9868 41.7651 43.1512L55.953 44.9365C56.6577 45.0304 57.2919 45.4297 57.6678 46.017L68.1913 62.5539C69.3893 64.4331 68.849 66.9465 66.9698 68.168C65.0906 69.3895 62.5537 68.8727 61.3322 66.9935L52.9463 54.1915C52.5 53.5103 51.7248 53.0875 50.9027 53.0875H32.3221C30.7953 53.0875 29.3624 52.2418 28.6342 50.8794L22.2919 39.111H22.2685Z" stroke="#51463E" stroke-linecap="round" stroke-linejoin="round"/>
<path d="M52.7576 1.17432C52.7576 1.17432 50.3852 8.33875 53.3684 16.1139C55.4355 22.1273 53.3684 27.4126 53.3684 27.4126" stroke="#51463E" stroke-linecap="round" stroke-linejoin="round"/>
<path d="M60.0389 1.17432C60.0389 1.17432 57.6664 8.33875 60.6496 16.1139C62.7167 22.1273 60.6496 27.4126 60.6496 27.4126" stroke="#51463E" stroke-linecap="round" stroke-linejoin="round"/>
<path d="M67.3006 1.17432C67.3006 1.17432 64.9281 8.33875 67.9114 16.1139C69.9785 22.1273 67.9114 27.4126 67.9114 27.4126" stroke="#51463E" stroke-linecap="round" stroke-linejoin="round"/>
<path d="M42.5142 53.0874H1.17188" stroke="#51463E" stroke-linecap="round" stroke-linejoin="round"/>
</g>
<defs>
<clipPath id="clip0_454_125">
<rect width="70" height="70" fill="white"/>
</clipPath>
</defs>
</svg>
