<svg width="72" height="70" viewBox="0 0 72 70" fill="none" xmlns="http://www.w3.org/2000/svg">
<g clip-path="url(#clip0_454_145)">
<path d="M44.7969 59.9204H70.7942" stroke="#51463E" stroke-linecap="round" stroke-linejoin="round"/>
<path d="M27.2083 35.5454H13.364C6.64718 35.5454 1.21094 40.9971 1.21094 47.733C1.21094 54.4689 6.64718 59.9206 13.364 59.9206H27.2083" stroke="#51463E" stroke-linecap="round" stroke-linejoin="round"/>
<path d="M44.7969 10.0068H58.6412C65.3579 10.0068 70.7942 15.4585 70.7942 22.1944V23.3575C70.7942 30.0934 65.3579 35.5451 58.6412 35.5451H44.7969" stroke="#51463E" stroke-linecap="round" stroke-linejoin="round"/>
<path d="M1.21094 10.0068H27.2083" stroke="#51463E" stroke-linecap="round" stroke-linejoin="round"/>
<path d="M35.9978 18.8507C40.8549 18.8507 44.7924 14.9021 44.7924 10.0311C44.7924 5.16012 40.8549 1.21143 35.9978 1.21143C31.1406 1.21143 27.2031 5.16012 27.2031 10.0311C27.2031 14.9021 31.1406 18.8507 35.9978 18.8507Z" stroke="#51463E" stroke-linecap="round" stroke-linejoin="round"/>
<path d="M35.9978 44.4132C40.8549 44.4132 44.7924 40.4645 44.7924 35.5936C44.7924 30.7226 40.8549 26.7739 35.9978 26.7739C31.1406 26.7739 27.2031 30.7226 27.2031 35.5936C27.2031 40.4645 31.1406 44.4132 35.9978 44.4132Z" stroke="#51463E" stroke-linecap="round" stroke-linejoin="round"/>
<path d="M35.9978 68.7887C40.8549 68.7887 44.7924 64.84 44.7924 59.9691C44.7924 55.0981 40.8549 51.1494 35.9978 51.1494C31.1406 51.1494 27.2031 55.0981 27.2031 59.9691C27.2031 64.84 31.1406 68.7887 35.9978 68.7887Z" stroke="#51463E" stroke-linecap="round" stroke-linejoin="round"/>
</g>
<defs>
<clipPath id="clip0_454_145">
<rect width="72" height="70" fill="white"/>
</clipPath>
</defs>
</svg>
