<svg width="70" height="70" viewBox="0 0 70 70" fill="none" xmlns="http://www.w3.org/2000/svg">
<path d="M33.7778 36.2221L48.4445 21.5554" stroke="#51463E" stroke-miterlimit="10" stroke-linecap="round" stroke-linejoin="round"/>
<path d="M67.9999 11.7778H58.2221V2L48.4443 11.7778V21.5556H58.2221L67.9999 11.7778Z" stroke="#51463E" stroke-miterlimit="10" stroke-linecap="round" stroke-linejoin="round"/>
<path d="M33.7778 50.8888C41.8779 50.8888 48.4444 44.3223 48.4444 36.2221C48.4444 28.1219 41.8779 21.5554 33.7778 21.5554C25.6776 21.5554 19.1111 28.1219 19.1111 36.2221C19.1111 44.3223 25.6776 50.8888 33.7778 50.8888Z" stroke="#51463E" stroke-miterlimit="10" stroke-linecap="round" stroke-linejoin="round"/>
<path d="M60.6667 19.111C63.8444 23.9999 65.5556 29.8666 65.5556 36.2221C65.5556 53.8221 51.3778 67.9999 33.7778 67.9999C16.1778 67.9999 2 53.8221 2 36.2221C2 18.6221 16.1778 4.44434 33.7778 4.44434C40.1333 4.44434 46 6.15545 50.8889 9.33322" stroke="#51463E" stroke-miterlimit="10" stroke-linecap="round" stroke-linejoin="round"/>
</svg>
