<svg width="70" height="70" viewBox="0 0 70 70" fill="none" xmlns="http://www.w3.org/2000/svg">
<g clip-path="url(#clip0_839_2172)">
<path d="M1 8.08337V1H9.08325" stroke="#51463E" stroke-miterlimit="10"/>
<path d="M1 61.9166V69H9.08325" stroke="#51463E" stroke-miterlimit="10"/>
<path d="M69 8.08337V1H60.9167" stroke="#51463E" stroke-miterlimit="10"/>
<path d="M69 61.9166V69H60.9167" stroke="#51463E" stroke-miterlimit="10"/>
<path d="M64.1666 35C61.2148 40.125 56.9648 44.3818 51.8444 47.3416C46.7241 50.3015 40.9142 51.8598 34.9999 51.8598C29.0856 51.8598 23.2758 50.3015 18.1554 47.3416C13.0351 44.3818 8.785 40.125 5.83325 35C8.785 29.875 13.0351 25.6182 18.1554 22.6584C23.2758 19.6985 29.0856 18.1401 34.9999 18.1401C40.9142 18.1401 46.7241 19.6985 51.8444 22.6584C56.9648 25.6182 61.2148 29.875 64.1666 35Z" stroke="#51463E" stroke-miterlimit="10"/>
<path d="M64.1666 35C61.2148 40.125 56.9648 44.3818 51.8444 47.3416C46.7241 50.3015 40.9142 51.8598 34.9999 51.8598C29.0856 51.8598 23.2758 50.3015 18.1554 47.3416C13.0351 44.3818 8.785 40.125 5.83325 35C8.785 29.875 13.0351 25.6182 18.1554 22.6584C23.2758 19.6985 29.0856 18.1401 34.9999 18.1401C40.9142 18.1401 46.7241 19.6985 51.8444 22.6584C56.9648 25.6182 61.2148 29.875 64.1666 35Z" stroke="#51463E" stroke-miterlimit="10"/>
<path d="M35 43.75C39.8325 43.75 43.75 39.8325 43.75 35C43.75 30.1675 39.8325 26.25 35 26.25C30.1675 26.25 26.25 30.1675 26.25 35C26.25 39.8325 30.1675 43.75 35 43.75Z" stroke="#51463E" stroke-miterlimit="10"/>
</g>
<defs>
<clipPath id="clip0_839_2172">
<rect width="70" height="70" fill="white"/>
</clipPath>
</defs>
</svg>
