<svg width="40" height="40" viewBox="0 0 40 40" fill="none" xmlns="http://www.w3.org/2000/svg">
<path d="M36.2769 8.9358C36.0831 7.88874 35.3806 7.01808 34.3973 6.60757L21.5555 1.24282C21.1698 1.08183 20.7619 1 20.3433 1C19.9248 1 19.5179 1.08183 19.1315 1.24282L6.28972 6.60757C5.30705 7.01808 4.6046 7.88874 4.41008 8.9358C4.36782 9.16386 3.38797 14.5984 4.60004 20.8835C5.33184 24.6793 6.71022 28.0197 8.69635 30.8101C11.2204 34.3571 14.6915 36.9757 19.0133 38.5923C19.3668 38.7244 19.7378 38.7915 20.1147 38.7915H20.5716C20.9486 38.7915 21.3193 38.7244 21.6728 38.5923C25.9945 36.9757 29.4659 34.3571 31.99 30.8101C33.9761 28.0197 35.3538 24.6793 36.0863 20.8835C37.2977 14.6024 36.3192 9.16453 36.2769 8.9358Z" stroke="#51463E"/>
<path d="M14.9121 20.2738C15.8673 21.2303 16.8414 22.2009 17.7832 23.1393L18.1687 23.5236C18.3015 23.6557 18.4235 23.7322 18.504 23.7322C18.5825 23.7322 18.7015 23.6584 18.8302 23.5296L22.9433 19.4279C23.2196 19.1522 23.4958 18.8766 23.7729 18.6016C24.4262 17.9509 25.1018 17.2781 25.7632 16.6147" stroke="#51463E"/>
</svg>
