<svg width="40" height="40" viewBox="0 0 40 40" fill="none" xmlns="http://www.w3.org/2000/svg">
<g clip-path="url(#clip0_839_2960)">
<path d="M12.0036 1.30859C9.54461 2.70286 7.40662 4.59902 5.72857 6.87378C4.05052 9.14855 2.86999 11.751 2.26372 14.512C1.65745 17.2729 1.63902 20.1305 2.20962 22.8991C2.78022 25.6676 3.92708 28.2851 5.57564 30.5813C7.56264 33.3588 10.2235 35.5852 13.308 37.0511C16.3925 38.5169 19.7992 39.1741 23.2076 38.9606C26.616 38.7472 29.914 37.6703 32.7916 35.8311C35.6691 33.9919 38.0315 31.4509 39.6565 28.4473C35.5214 29.2785 31.2396 28.9945 27.2506 27.6245C21.9871 25.779 17.5572 22.1119 14.761 17.2858C11.9649 12.4597 10.9868 6.79276 12.0036 1.30859Z" stroke="#51463E"/>
</g>
<defs>
<clipPath id="clip0_839_2960">
<rect width="40" height="40" fill="white"/>
</clipPath>
</defs>
</svg>
