<svg width="40" height="40" viewBox="0 0 40 40" fill="none" xmlns="http://www.w3.org/2000/svg">
<path d="M35.8425 20.6292L20.1603 36.2757C19.9571 36.4789 19.609 36.4789 19.4068 36.2757L3.99818 20.9027C2.06954 18.9795 0.977644 16.2897 1.00035 13.5254C1.02197 10.8973 2.03062 8.48757 3.84035 6.73946C5.66954 4.97297 8.08035 4 10.6285 4C13.2371 4 15.689 5.01405 17.5333 6.85405L18.6425 7.96108C19.2533 8.57081 20.3128 8.57081 20.9236 7.96108L21.7668 7.12C23.7085 5.1827 26.3755 4.07135 29.0814 4.07135C31.4176 4.07135 33.6522 4.90378 35.3744 6.41622C37.4306 8.22162 38.6101 10.7124 38.6966 13.4303C38.7831 16.1492 37.7701 18.7059 35.8425 20.6292Z" stroke="#51463E"/>
</svg>
