<svg width="70" height="70" viewBox="0 0 70 70" fill="none" xmlns="http://www.w3.org/2000/svg">
<path d="M43.0924 68H27.3443C26.7895 68 26.3423 67.5506 26.3423 66.9982V59.8596C23.5118 58.8285 20.9046 57.3188 18.5749 55.3598L12.3814 58.9366C12.1507 59.0667 11.8756 59.1036 11.6203 59.0373C11.365 58.9685 11.1439 58.8015 11.0113 58.5707L3.13611 44.9317C3.00355 44.7009 2.96669 44.4283 3.03543 44.1705C3.10416 43.9128 3.27215 43.6942 3.50291 43.5616L9.67123 39.9998C9.41102 38.5195 9.28167 37.0097 9.28167 35.5C9.28167 33.9903 9.41102 32.478 9.67123 31.0002L3.50291 27.4381C3.27215 27.3055 3.10416 27.0848 3.03543 26.8295C2.96669 26.5742 3.0011 26.2991 3.13611 26.0683L11.0113 12.4293C11.1439 12.1985 11.365 12.0315 11.6203 11.9627C11.8756 11.894 12.1507 11.9284 12.3814 12.0634L18.5749 15.6402C20.9046 13.6837 23.5118 12.1739 26.3423 11.1428V4.00148C26.3423 3.44668 26.792 3 27.3443 3H43.0924C43.6472 3 44.0933 3.44914 44.0933 4.00148V11.1428C46.9237 12.1739 49.531 13.6837 51.8606 15.6402L58.0565 12.0634C58.2873 11.9308 58.5624 11.894 58.8177 11.9627C59.073 12.0315 59.294 12.1985 59.4266 12.4293L67.3018 26.0683C67.5792 26.547 67.4149 27.1607 66.9362 27.4381L60.7667 31.0002C61.0245 32.483 61.1575 33.9927 61.1575 35.5C61.1575 37.0073 61.0269 38.5195 60.7667 39.9998L66.9362 43.5616C67.4149 43.839 67.5792 44.4505 67.3018 44.9317L59.4266 58.5707C59.294 58.8015 59.073 58.9685 58.8177 59.0373C58.5624 59.1036 58.2873 59.0692 58.0565 58.9366L51.8606 55.3598C49.5285 57.3188 46.9213 58.8285 44.0933 59.8596V66.9982C44.0933 67.553 43.6447 68 43.0924 68Z" stroke="#51463E"/>
<path d="M35.4982 26C30.262 26 26 30.2617 26 35.4979C26 40.7341 30.2595 44.9958 35.4982 44.9958C40.7369 44.9958 44.9952 40.7366 44.9952 35.4979C44.9952 30.2592 40.7344 26 35.4982 26Z" stroke="#51463E"/>
</svg>
