<svg width="20" height="22" viewBox="0 0 20 22" fill="none" xmlns="http://www.w3.org/2000/svg">
<path d="M11.4655 5.7315L6.14047 11.0557C5.53328 11.6843 5.1973 12.5263 5.20489 13.4003C5.21249 14.2743 5.56305 15.1104 6.18108 15.7284C6.7991 16.3464 7.63515 16.697 8.50914 16.7046C9.38312 16.7122 10.2251 16.3762 10.8538 15.769L16.4721 10.1498C17.446 9.12596 17.9813 7.76204 17.9636 6.34907C17.946 4.9361 17.3769 3.58597 16.3778 2.58671C15.3786 1.58746 14.0285 1.01822 12.6156 1.00043C11.2026 0.982642 9.83862 1.51772 8.81464 2.4915L3.19464 8.114C2.14649 9.16239 1.43278 10.4981 1.14379 11.9521C0.854799 13.4062 1.0035 14.9132 1.5711 16.2828C2.13869 17.6523 3.09968 18.8227 4.33251 19.646C5.56535 20.4694 7.01466 20.9086 8.49714 20.9082C9.48191 20.9104 10.4574 20.7181 11.3677 20.3422C12.2779 19.9664 13.105 19.4145 13.8013 18.7182L19.1263 13.3932" stroke="#51463E" stroke-width="2"/>
</svg>
