<svg width="73" height="70" viewBox="0 0 73 70" fill="none" xmlns="http://www.w3.org/2000/svg">
<g clip-path="url(#clip0_454_89)">
<path d="M36.5067 12.8335C24.3332 12.8335 14.4414 22.7845 14.4414 35.0002C14.4414 47.2158 24.3469 57.1668 36.5067 57.1668C48.6666 57.1668 58.572 47.2158 58.572 35.0002C58.572 22.7845 48.6666 12.8335 36.5067 12.8335Z" stroke="#51463E" stroke-linecap="round" stroke-linejoin="round"/>
<path d="M64.9389 43.4275C64.5427 43.8392 64.3515 44.4157 64.4334 44.9784L65.8134 54.8059C65.95 55.7941 65.2805 56.7275 64.2968 56.8922L54.5689 58.6079C54.0088 58.7039 53.5169 59.0608 53.2573 59.5686L48.6256 68.3392C48.1611 69.2177 47.0818 69.5745 46.18 69.1353L37.3129 64.7706C36.8074 64.5235 36.2062 64.5235 35.687 64.7706L26.8199 69.1353C25.9182 69.5745 24.8388 69.2177 24.3743 68.3392L19.7426 59.5686C19.4694 59.0608 18.9912 58.7039 18.431 58.6079L8.70313 56.8922C7.71941 56.7137 7.04994 55.7941 7.18657 54.8059L8.5665 44.9784C8.64848 44.4157 8.4572 43.8392 8.06098 43.4275L1.20229 36.2902C0.505488 35.5765 0.505488 34.4235 1.20229 33.7098L8.07464 26.5726C8.47086 26.1608 8.66214 25.5843 8.58017 25.0216L7.20023 15.1941C7.0636 14.2059 7.73308 13.2726 8.71679 13.1079L18.4447 11.3922C19.0048 11.2961 19.4967 10.9392 19.7563 10.4314L24.388 1.6608C24.8525 0.782367 25.9318 0.425505 26.8336 0.86472L35.7144 5.22943C36.2199 5.47648 36.821 5.47648 37.3402 5.22943L46.2073 0.86472C47.1091 0.425505 48.1884 0.782367 48.653 1.6608L53.2846 10.4314C53.5579 10.9392 54.0361 11.2961 54.5963 11.3922L64.3241 13.1079C65.3078 13.2863 65.9773 14.2059 65.8407 15.1941L64.4608 25.0216C64.3788 25.5843 64.5701 26.1608 64.9663 26.5726L71.8386 33.7098C72.5354 34.4235 72.5354 35.5765 71.8386 36.2902L64.9663 43.4275H64.9389Z" stroke="#51463E" stroke-linecap="round" stroke-linejoin="round"/>
<path d="M26.5312 35.5764L32.8024 41.8627L46.4652 28.1372" stroke="#51463E" stroke-linecap="round" stroke-linejoin="round"/>
</g>
<defs>
<clipPath id="clip0_454_89">
<rect width="73" height="70" fill="white"/>
</clipPath>
</defs>
</svg>
