<svg width="1717" height="218" viewBox="0 0 1717 218" fill="none" xmlns="http://www.w3.org/2000/svg">
<g clip-path="url(#clip0_454_181)">
<path d="M127.419 213.778V116.264C127.419 97.6507 123.308 83.3504 115.265 73.7261C107.087 64.0109 95.2483 59.108 80.0664 59.108C69.5837 59.108 60.095 61.741 51.9167 66.871C43.7383 72.0463 37.1866 79.537 32.4423 89.2067C27.7431 98.7856 25.3483 110.771 25.3483 124.753V213.733H0V42.1746H22.321L24.8061 70.9114H28.0142L29.686 69.8672C35.6052 60.0613 43.4672 52.2075 53.1366 46.4874C62.7609 40.8127 74.4636 37.9072 87.8833 37.9072C101.303 37.9072 112.373 40.6311 122.133 45.988C131.802 51.2996 139.438 59.562 144.725 70.5482C150.102 81.6707 152.813 95.971 152.813 113.041V213.733H127.465L127.419 213.778Z" fill="url(#paint0_linear_454_181)"/>
<path d="M266.451 218C250.229 218 235.635 214.232 223.074 206.786C210.513 199.341 200.527 188.763 193.343 175.326C186.158 161.843 182.453 145.908 182.453 127.976C182.453 110.044 186.068 93.746 193.162 80.399C200.256 67.0975 210.241 56.6106 222.893 49.1654C235.59 41.7202 250.455 37.9521 267.174 37.9521C283.892 37.9521 298.305 41.7202 310.144 49.1654C321.982 56.6106 331.245 66.5073 337.616 78.4923C343.987 90.5227 347.24 103.824 347.24 118.079V125.706C347.24 127.794 347.15 130.11 347.014 132.561H207.259L207.35 134.831C207.937 147.769 210.648 158.71 215.483 167.381C221.086 177.414 228.541 184.995 237.713 190.035C246.795 195.028 256.465 197.571 266.451 197.571C279.057 197.571 289.811 194.574 298.351 188.673C306.529 183.043 312.674 175.28 316.605 165.611H341.547C338.519 175.053 333.82 183.633 327.63 191.124C320.807 199.341 312.222 205.969 302.056 210.781C291.934 215.594 279.961 218.045 266.451 218.045V218ZM266.451 57.0192C256.013 57.0192 246.208 59.3799 237.262 64.0105C228.225 68.641 220.86 75.7231 215.392 85.0296C211.145 92.2932 208.479 101.191 207.576 111.451L207.35 113.812H322.343L322.253 111.542C321.53 94.4723 315.882 80.9892 305.49 71.4103C295.143 61.8768 281.994 57.0192 266.451 57.0192Z" fill="url(#paint1_linear_454_181)"/>
<path d="M550.93 213.778V42.1741H573.251L576.097 79.4003H579.486L581.113 78.1292C586.173 66.8251 591.55 58.1995 597.108 52.5248C602.575 46.8955 609.082 43.0367 616.447 41.0392C623.541 39.1325 631.99 38.0883 641.614 37.9521V64.8276H636.012C626.884 64.8276 618.525 66.0534 611.16 68.4594C603.705 70.9109 597.334 74.5881 592.183 79.4003C586.987 84.2125 583.01 90.6135 580.345 98.3766C577.679 106.003 576.323 115.128 576.323 125.524V213.778H550.975H550.93Z" fill="url(#paint2_linear_454_181)"/>
<path d="M736.955 218C720.959 218 706.32 214.277 693.533 206.923C680.791 199.614 670.534 189.081 663.124 175.643C655.713 162.206 651.918 146.135 651.918 127.93C651.918 109.726 655.759 93.6552 663.304 80.2174C670.85 66.8251 681.197 56.2928 694.075 48.9384C706.952 41.5839 721.637 37.8613 737.678 37.8613C753.718 37.8613 768.267 41.5839 781.054 48.9384C793.796 56.2928 804.053 66.7797 811.463 80.2174C818.919 93.6552 822.669 109.681 822.669 127.93C822.669 146.18 818.828 162.206 811.283 175.643C803.737 189.081 793.39 199.614 780.512 206.923C767.635 214.277 752.95 218 736.909 218H736.955ZM737.678 57.3824C727.466 57.3824 717.661 59.97 708.579 65.1C699.452 70.2299 691.996 78.1745 686.394 88.6614C680.836 99.1029 678.034 112.314 678.034 127.976C678.034 143.638 680.836 156.849 686.394 167.109C691.951 177.459 699.316 185.359 708.172 190.625C717.028 195.891 726.698 198.569 737 198.569C747.302 198.569 757.333 195.891 766.324 190.625C775.316 185.359 782.726 177.459 788.329 167.109C793.887 156.803 796.688 143.638 796.688 127.976C796.688 112.314 793.932 99.1029 788.51 88.6614C783.043 78.1745 775.678 70.2299 766.641 65.1C757.649 59.97 747.934 57.3824 737.723 57.3824H737.678Z" fill="url(#paint3_linear_454_181)"/>
<path d="M982.301 213.776L920.309 42.1729H946.787L997.619 192.893H1000.69L1002.23 191.441L1052.56 42.1729H1078.32L1016.33 213.776H982.301Z" fill="url(#paint4_linear_454_181)"/>
<path d="M1150.39 218C1136.7 218 1125.09 215.594 1115.92 210.781C1106.79 206.015 1099.97 199.659 1095.63 191.805C1091.25 183.906 1089.03 175.19 1089.03 165.883C1089.03 154.352 1092.06 144.546 1097.98 136.692C1103.9 128.793 1112.48 122.619 1123.51 118.442C1134.62 114.175 1147.95 112.041 1163.13 112.041H1212.56V109.862C1212.56 98.2403 1210.71 88.389 1207.05 80.5806C1203.35 72.636 1197.93 66.6435 1190.97 62.7393C1184.1 58.9259 1175.78 56.9738 1166.3 56.9738C1154.37 56.9738 1143.84 60.1062 1135.07 66.2349C1126.58 72.1366 1121.16 81.08 1118.94 92.7926H1092.87C1094.45 81.534 1098.47 71.8642 1104.8 64.0558C1111.58 55.6118 1120.39 49.12 1130.96 44.6256C1141.58 40.1312 1153.46 37.8613 1166.34 37.8613C1182.61 37.8613 1196.16 40.8122 1206.78 46.6685C1217.26 52.434 1225.17 60.6056 1230.23 70.9109C1235.34 81.307 1237.96 93.7006 1237.96 107.728V213.732H1217.04L1214.55 183.225H1211.3L1209.63 184.314C1206.65 189.581 1203.08 194.302 1199.01 198.388C1194.94 202.474 1190.38 206.015 1185.5 208.875C1180.62 211.689 1175.2 213.959 1169.28 215.548C1163.36 217.137 1156.99 217.954 1150.44 217.954L1150.39 218ZM1165.57 130.791C1153.87 130.791 1144.2 132.198 1136.93 135.013C1129.47 137.873 1124 141.913 1120.71 147.043C1117.45 152.127 1115.78 157.984 1115.78 164.521C1115.78 171.058 1117.36 176.869 1120.52 181.818C1123.69 186.766 1128.34 190.625 1134.31 193.258C1140.22 195.845 1147.27 197.162 1155.32 197.162C1164.58 197.162 1172.8 195.346 1179.76 191.805C1186.72 188.264 1192.68 183.361 1197.56 177.232C1202.44 171.149 1206.15 164.158 1208.68 156.531C1211.21 148.904 1212.47 140.96 1212.47 132.97V130.791H1165.53H1165.57Z" fill="url(#paint5_linear_454_181)"/>
<path d="M1400.67 213.778V116.264C1400.67 97.6507 1396.55 83.3504 1388.51 73.7261C1380.33 64.0109 1368.49 59.108 1353.31 59.108C1342.83 59.108 1333.34 61.741 1325.16 66.871C1316.98 72.0009 1310.43 79.537 1305.69 89.2067C1300.99 98.7856 1298.59 110.771 1298.59 124.753V213.733H1273.25V42.1746H1295.61L1298.05 70.9114H1301.26L1302.93 69.8672C1308.81 60.0613 1316.71 52.2075 1326.38 46.4874C1336.01 40.8127 1347.66 37.9072 1361.08 37.9072C1374.5 37.9072 1385.57 40.6311 1395.33 45.988C1405 51.2996 1412.59 59.562 1417.88 70.5482C1423.26 81.6707 1425.97 95.971 1425.97 113.041V213.733H1400.62L1400.67 213.778Z" fill="url(#paint6_linear_454_181)"/>
<path d="M1523.3 213.778C1513.04 213.778 1504.05 212.144 1496.59 208.966C1489.36 205.879 1483.72 200.522 1479.83 193.122C1475.9 185.586 1473.91 175.099 1473.91 162.025V60.1974H1443.55V42.1745H1473.91V0H1499.26V42.1745H1547.97V60.1974H1499.26V162.025C1499.26 174.827 1501.7 183.271 1506.67 187.72C1511.59 192.169 1519.77 194.302 1531.75 194.302H1547.97V213.733H1523.3V213.778Z" fill="url(#paint7_linear_454_181)"/>
<path d="M1629.52 218C1615.83 218 1604.22 215.594 1595.05 210.781C1585.97 206.06 1579.14 199.659 1574.76 191.805C1570.38 183.906 1568.16 175.19 1568.16 165.883C1568.16 154.352 1571.19 144.546 1577.11 136.692C1583.03 128.793 1591.61 122.619 1602.64 118.442C1613.75 114.175 1627.08 112.041 1642.27 112.041H1691.7V109.862C1691.7 98.2403 1689.85 88.389 1686.19 80.5806C1682.48 72.636 1677.06 66.6435 1670.1 62.7393C1663.23 58.9259 1654.92 56.9738 1645.43 56.9738C1633.5 56.9738 1623.02 60.1062 1614.21 66.2349C1605.71 72.1366 1600.29 81.08 1598.08 92.7926H1572C1573.59 81.534 1577.61 71.8642 1583.93 64.0558C1590.71 55.6118 1599.52 49.12 1610.1 44.6256C1620.71 40.1312 1632.6 37.8613 1645.43 37.8613C1661.7 37.8613 1675.3 40.8122 1685.87 46.6685C1696.4 52.434 1704.26 60.6056 1709.32 70.9109C1714.47 81.307 1717.05 93.7006 1717.05 107.728V213.732H1696.13L1693.64 183.225H1690.39L1688.72 184.314C1685.78 189.581 1682.21 194.302 1678.1 198.388C1673.99 202.474 1669.47 206.015 1664.59 208.875C1659.71 211.735 1654.24 213.959 1648.32 215.548C1642.4 217.137 1636.08 217.954 1629.48 217.954L1629.52 218ZM1644.66 130.791C1632.96 130.791 1623.29 132.198 1616.01 135.013C1608.56 137.873 1603.09 141.913 1599.79 147.043C1596.54 152.127 1594.87 157.984 1594.87 164.521C1594.87 171.058 1596.45 176.869 1599.61 181.818C1602.78 186.766 1607.43 190.625 1613.44 193.258C1619.31 195.845 1626.36 197.162 1634.4 197.162C1643.67 197.162 1651.89 195.346 1658.85 191.805C1665.81 188.264 1671.77 183.361 1676.65 177.232C1681.49 171.195 1685.24 164.203 1687.77 156.531C1690.3 148.904 1691.56 140.96 1691.56 132.97V130.791H1644.62H1644.66Z" fill="url(#paint8_linear_454_181)"/>
<path d="M448.863 218.002C408.062 218.002 374.852 184.634 374.852 143.64V42.2217H400.2V147.681C400.2 174.647 422.024 196.574 448.863 196.574C475.703 196.574 497.527 174.647 497.527 147.681V42.2217H522.875V143.64C522.875 184.634 489.665 218.002 448.863 218.002Z" fill="url(#paint9_linear_454_181)"/>
</g>
<defs>
<linearGradient id="paint0_linear_454_181" x1="3.11771" y1="125.843" x2="1688.53" y2="125.843" gradientUnits="userSpaceOnUse">
<stop stop-color="#7F6157"/>
<stop offset="0.32" stop-color="#C9B6AC"/>
<stop offset="0.68" stop-color="#BFA373"/>
<stop offset="1" stop-color="#7F6157"/>
</linearGradient>
<linearGradient id="paint1_linear_454_181" x1="3.11701" y1="127.976" x2="1688.53" y2="127.976" gradientUnits="userSpaceOnUse">
<stop stop-color="#7F6157"/>
<stop offset="0.32" stop-color="#C9B6AC"/>
<stop offset="0.68" stop-color="#BFA373"/>
<stop offset="1" stop-color="#7F6157"/>
</linearGradient>
<linearGradient id="paint2_linear_454_181" x1="3.11634" y1="125.842" x2="1688.53" y2="125.842" gradientUnits="userSpaceOnUse">
<stop stop-color="#7F6157"/>
<stop offset="0.32" stop-color="#C9B6AC"/>
<stop offset="0.68" stop-color="#BFA373"/>
<stop offset="1" stop-color="#7F6157"/>
</linearGradient>
<linearGradient id="paint3_linear_454_181" x1="3.11769" y1="127.976" x2="1688.53" y2="127.976" gradientUnits="userSpaceOnUse">
<stop stop-color="#7F6157"/>
<stop offset="0.32" stop-color="#C9B6AC"/>
<stop offset="0.68" stop-color="#BFA373"/>
<stop offset="1" stop-color="#7F6157"/>
</linearGradient>
<linearGradient id="paint4_linear_454_181" x1="3.11427" y1="127.975" x2="1688.53" y2="127.975" gradientUnits="userSpaceOnUse">
<stop stop-color="#7F6157"/>
<stop offset="0.32" stop-color="#C9B6AC"/>
<stop offset="0.68" stop-color="#BFA373"/>
<stop offset="1" stop-color="#7F6157"/>
</linearGradient>
<linearGradient id="paint5_linear_454_181" x1="3.11887" y1="127.976" x2="1688.54" y2="127.976" gradientUnits="userSpaceOnUse">
<stop stop-color="#7F6157"/>
<stop offset="0.32" stop-color="#C9B6AC"/>
<stop offset="0.68" stop-color="#BFA373"/>
<stop offset="1" stop-color="#7F6157"/>
</linearGradient>
<linearGradient id="paint6_linear_454_181" x1="3.11847" y1="7.44262e-05" x2="1688.53" y2="7.44262e-05" gradientUnits="userSpaceOnUse">
<stop stop-color="#7F6157"/>
<stop offset="0.32" stop-color="#C9B6AC"/>
<stop offset="0.68" stop-color="#BFA373"/>
<stop offset="1" stop-color="#7F6157"/>
</linearGradient>
<linearGradient id="paint7_linear_454_181" x1="3.12042" y1="106.866" x2="1688.54" y2="106.866" gradientUnits="userSpaceOnUse">
<stop stop-color="#7F6157"/>
<stop offset="0.32" stop-color="#C9B6AC"/>
<stop offset="0.68" stop-color="#BFA373"/>
<stop offset="1" stop-color="#7F6157"/>
</linearGradient>
<linearGradient id="paint8_linear_454_181" x1="3.11807" y1="127.976" x2="1688.53" y2="127.976" gradientUnits="userSpaceOnUse">
<stop stop-color="#7F6157"/>
<stop offset="0.32" stop-color="#C9B6AC"/>
<stop offset="0.68" stop-color="#BFA373"/>
<stop offset="1" stop-color="#7F6157"/>
</linearGradient>
<linearGradient id="paint9_linear_454_181" x1="3.12104" y1="130.112" x2="1688.54" y2="130.112" gradientUnits="userSpaceOnUse">
<stop stop-color="#7F6157"/>
<stop offset="0.32" stop-color="#C9B6AC"/>
<stop offset="0.68" stop-color="#BFA373"/>
<stop offset="1" stop-color="#7F6157"/>
</linearGradient>
<clipPath id="clip0_454_181">
<rect width="1717" height="218" fill="white"/>
</clipPath>
</defs>
</svg>
