<svg width="320" height="40" viewBox="0 0 320 40" fill="none" xmlns="http://www.w3.org/2000/svg">
<g clip-path="url(#clip0_428_573)">
<path d="M23.7474 39.2253V21.3328C23.7474 17.9175 22.9811 15.2936 21.4821 13.5277C19.9579 11.7451 17.7516 10.8455 14.9221 10.8455C12.9684 10.8455 11.2 11.3286 9.67579 12.2699C8.15158 13.2195 6.93053 14.5939 6.04632 16.3682C5.17053 18.1258 4.72421 20.3249 4.72421 22.8905V39.217H0V7.73844H4.16L4.62316 13.0112H5.22105L5.53263 12.8197C6.63579 11.0204 8.10105 9.57934 9.90316 8.52978C11.6968 7.48855 13.8779 6.95544 16.3789 6.95544C18.88 6.95544 20.9432 7.45523 22.7621 8.43815C24.5642 9.41275 25.9874 10.9288 26.9726 12.9446C27.9747 14.9854 28.48 17.6093 28.48 20.7414V39.217H23.7558L23.7474 39.2253Z" fill="url(#paint0_linear_428_573)"/>
<path d="M49.6586 40C46.6355 40 43.9155 39.3086 41.5744 37.9425C39.2334 36.5764 37.3723 34.6356 36.0334 32.1699C34.6944 29.696 34.0039 26.7722 34.0039 23.4819C34.0039 20.1916 34.6776 17.2012 35.9997 14.7522C37.3218 12.3115 39.1829 10.3873 41.5407 9.02124C43.9071 7.65514 46.6776 6.96376 49.7934 6.96376C52.9092 6.96376 55.5955 7.65514 57.8018 9.02124C60.0081 10.3873 61.7344 12.2032 62.9218 14.4023C64.1092 16.6097 64.7155 19.0504 64.7155 21.666V23.0654C64.7155 23.4486 64.6986 23.8734 64.6734 24.3232H38.6271L38.6439 24.7397C38.7534 27.1137 39.2586 29.1212 40.1597 30.7122C41.2039 32.5531 42.5934 33.9442 44.3029 34.8688C45.9955 35.7851 47.7976 36.2516 49.6586 36.2516C52.0081 36.2516 54.0123 35.7018 55.6039 34.6189C57.1281 33.586 58.2734 32.1616 59.006 30.3873H63.6544C63.0902 32.1199 62.2144 33.6943 61.0607 35.0687C59.7892 36.5764 58.1892 37.7926 56.2944 38.6755C54.4081 39.5585 52.1765 40.0083 49.6586 40.0083V40ZM49.6586 10.4623C47.7134 10.4623 45.886 10.8955 44.2186 11.7451C42.5344 12.5948 41.1618 13.8942 40.1429 15.6018C39.3513 16.9346 38.8544 18.5673 38.686 20.4498L38.6439 20.883H60.0755L60.0586 20.4665C59.9239 17.3344 58.8713 14.8605 56.9344 13.1029C55.006 11.3536 52.5555 10.4623 49.6586 10.4623Z" fill="url(#paint1_linear_428_573)"/>
<path d="M102.68 39.2253V7.73844H106.84L107.37 14.5689H108.002L108.305 14.3357C109.248 12.2616 110.25 10.6789 111.286 9.63765C112.305 8.60475 113.518 7.89671 114.89 7.5302C116.212 7.18034 117.787 6.98875 119.581 6.96376V11.895H118.537C116.835 11.895 115.278 12.1199 113.905 12.5614C112.515 13.0112 111.328 13.686 110.368 14.5689C109.4 15.4519 108.659 16.6264 108.162 18.0508C107.665 19.4502 107.412 21.1245 107.412 23.0321V39.2253H102.688H102.68Z" fill="url(#paint2_linear_428_573)"/>
<path d="M137.348 40C134.367 40 131.639 39.317 129.256 37.9675C126.881 36.6264 124.969 34.6939 123.588 32.2282C122.207 29.7626 121.5 26.8138 121.5 23.4736C121.5 20.1333 122.216 17.1845 123.622 14.7189C125.028 12.2616 126.957 10.329 129.357 8.97959C131.757 7.63015 134.494 6.94711 137.483 6.94711C140.473 6.94711 143.184 7.63015 145.567 8.97959C147.942 10.329 149.854 12.2532 151.235 14.7189C152.624 17.1845 153.323 20.1249 153.323 23.4736C153.323 26.8222 152.607 29.7626 151.201 32.2282C149.795 34.6939 147.866 36.6264 145.466 37.9675C143.066 39.317 140.329 40 137.34 40H137.348ZM137.483 10.5289C135.58 10.5289 133.753 11.0037 132.06 11.945C130.359 12.8863 128.969 14.344 127.925 16.2682C126.889 18.1841 126.367 20.6081 126.367 23.4819C126.367 26.3557 126.889 28.7797 127.925 30.6622C128.961 32.5614 130.334 34.0108 131.984 34.9771C133.635 35.9434 135.437 36.4348 137.357 36.4348C139.277 36.4348 141.146 35.9434 142.822 34.9771C144.498 34.0108 145.879 32.5614 146.923 30.6622C147.959 28.7713 148.481 26.3557 148.481 23.4819C148.481 20.6081 147.967 18.1841 146.957 16.2682C145.938 14.344 144.565 12.8863 142.881 11.945C141.205 11.0037 139.395 10.5289 137.492 10.5289H137.483Z" fill="url(#paint3_linear_428_573)"/>
<path d="M183.073 39.2253L171.52 7.73844H176.454L185.928 35.3936H186.501L186.787 35.127L196.168 7.73844H200.968L189.414 39.2253H183.073Z" fill="url(#paint4_linear_428_573)"/>
<path d="M214.401 40C211.849 40 209.685 39.5585 207.975 38.6756C206.274 37.8009 205.003 36.6347 204.194 35.1937C203.377 33.7443 202.965 32.1449 202.965 30.4373C202.965 28.3215 203.529 26.5223 204.632 25.0812C205.735 23.6318 207.335 22.499 209.39 21.7326C211.462 20.9496 213.946 20.5581 216.775 20.5581H225.988V20.1583C225.988 18.0258 225.643 16.2182 224.961 14.7855C224.27 13.3278 223.26 12.2282 221.963 11.5119C220.683 10.8122 219.133 10.454 217.365 10.454C215.142 10.454 213.18 11.0287 211.546 12.1533C209.963 13.2362 208.952 14.8771 208.54 17.0262H203.681C203.975 14.9604 204.725 13.1862 205.904 11.7534C207.167 10.2041 208.809 9.01291 210.78 8.18825C212.759 7.3636 214.973 6.94711 217.373 6.94711C220.405 6.94711 222.931 7.48855 224.91 8.5631C226.864 9.62099 228.337 11.1204 229.281 13.0112C230.232 14.9188 230.721 17.1928 230.721 19.7668V39.217H226.822L226.359 33.6193H225.752L225.441 33.8192C224.885 34.7855 224.22 35.6518 223.462 36.4015C222.704 37.1512 221.853 37.8009 220.944 38.3257C220.034 38.8421 219.024 39.2586 217.921 39.5502C216.817 39.8417 215.63 39.9917 214.409 39.9917L214.401 40ZM217.23 23.9983C215.049 23.9983 213.247 24.2566 211.891 24.773C210.502 25.2978 209.483 26.0392 208.868 26.9804C208.262 27.9134 207.95 28.9879 207.95 30.1874C207.95 31.3869 208.245 32.4531 208.834 33.3611C209.424 34.2691 210.291 34.9771 211.403 35.4602C212.506 35.935 213.82 36.1766 215.319 36.1766C217.045 36.1766 218.577 35.8434 219.874 35.1937C221.171 34.5439 222.283 33.6443 223.192 32.5198C224.102 31.4036 224.792 30.1208 225.264 28.7214C225.735 27.3219 225.971 25.8642 225.971 24.3982V23.9983H217.222H217.23Z" fill="url(#paint5_linear_428_573)"/>
<path d="M261.044 39.2253V21.3328C261.044 17.9175 260.278 15.2936 258.779 13.5277C257.255 11.7451 255.048 10.8455 252.219 10.8455C250.265 10.8455 248.497 11.3286 246.973 12.2699C245.448 13.2112 244.227 14.5939 243.343 16.3682C242.467 18.1258 242.021 20.3249 242.021 22.8905V39.217H237.297V7.73844H241.465L241.92 13.0112H242.518L242.829 12.8197C243.924 11.0204 245.398 9.57934 247.2 8.52978C248.994 7.48855 251.166 6.95544 253.667 6.95544C256.168 6.95544 258.232 7.45523 260.051 8.43815C261.853 9.41275 263.267 10.9288 264.253 12.9446C265.255 14.9854 265.76 17.6093 265.76 20.7414V39.217H261.036L261.044 39.2253Z" fill="url(#paint6_linear_428_573)"/>
<path d="M283.898 39.2253C281.987 39.2253 280.311 38.9254 278.921 38.3424C277.574 37.7759 276.521 36.793 275.797 35.4352C275.065 34.0525 274.694 32.1283 274.694 29.7293V11.0454H269.035V7.73844H274.694V0H279.418V7.73844H288.496V11.0454H279.418V29.7293C279.418 32.0783 279.873 33.6277 280.799 34.444C281.717 35.2603 283.241 35.6518 285.473 35.6518H288.496V39.217H283.898V39.2253Z" fill="url(#paint7_linear_428_573)"/>
<path d="M303.698 40C301.146 40 298.982 39.5585 297.272 38.6756C295.58 37.8092 294.308 36.6347 293.491 35.1937C292.674 33.7443 292.262 32.1449 292.262 30.4373C292.262 28.3215 292.826 26.5223 293.929 25.0812C295.032 23.6318 296.632 22.499 298.687 21.7326C300.759 20.9496 303.243 20.5581 306.072 20.5581H315.285V20.1583C315.285 18.0258 314.94 16.2182 314.258 14.7855C313.567 13.3278 312.556 12.2282 311.26 11.5119C309.98 10.8122 308.43 10.454 306.662 10.454C304.439 10.454 302.485 11.0287 300.843 12.1533C299.26 13.2362 298.249 14.8771 297.836 17.0262H292.978C293.272 14.9604 294.022 13.1862 295.201 11.7534C296.464 10.2041 298.106 9.01291 300.076 8.18825C302.055 7.3636 304.27 6.94711 306.662 6.94711C309.693 6.94711 312.228 7.48855 314.199 8.5631C316.161 9.62099 317.626 11.1204 318.569 13.0112C319.529 14.9188 320.009 17.1928 320.009 19.7668V39.217H316.11L315.647 33.6193H315.041L314.729 33.8192C314.182 34.7855 313.516 35.6518 312.75 36.4015C311.984 37.1512 311.142 37.8009 310.232 38.3257C309.323 38.8505 308.304 39.2586 307.201 39.5502C306.097 39.8417 304.919 39.9917 303.689 39.9917L303.698 40ZM306.519 23.9983C304.338 23.9983 302.535 24.2566 301.18 24.773C299.79 25.2978 298.771 26.0392 298.156 26.9804C297.55 27.9134 297.239 28.9879 297.239 30.1874C297.239 31.3869 297.533 32.4531 298.123 33.3611C298.712 34.2691 299.58 34.9771 300.7 35.4602C301.794 35.935 303.108 36.1766 304.607 36.1766C306.333 36.1766 307.866 35.8434 309.163 35.1937C310.46 34.5439 311.571 33.6443 312.481 32.5198C313.382 31.4119 314.081 30.1291 314.552 28.7214C315.024 27.3219 315.26 25.8642 315.26 24.3982V23.9983H306.51H306.519Z" fill="url(#paint8_linear_428_573)"/>
<path d="M83.6531 40C76.0488 40 69.8594 33.8776 69.8594 26.3557V7.74677H74.5836V27.097C74.5836 32.045 78.651 36.0683 83.6531 36.0683C88.6552 36.0683 92.7225 32.045 92.7225 27.097V7.74677H97.4467V26.3557C97.4467 33.8776 91.2573 40 83.6531 40Z" fill="url(#paint9_linear_428_573)"/>
</g>
<defs>
<linearGradient id="paint0_linear_428_573" x1="0.581053" y1="23.0904" x2="314.695" y2="23.0904" gradientUnits="userSpaceOnUse">
<stop stop-color="#7F6157"/>
<stop offset="0.32" stop-color="#C9B6AC"/>
<stop offset="0.68" stop-color="#BFA373"/>
<stop offset="1" stop-color="#7F6157"/>
</linearGradient>
<linearGradient id="paint1_linear_428_573" x1="0.580752" y1="23.4819" x2="314.694" y2="23.4819" gradientUnits="userSpaceOnUse">
<stop stop-color="#7F6157"/>
<stop offset="0.32" stop-color="#C9B6AC"/>
<stop offset="0.68" stop-color="#BFA373"/>
<stop offset="1" stop-color="#7F6157"/>
</linearGradient>
<linearGradient id="paint2_linear_428_573" x1="0.582847" y1="23.0904" x2="314.697" y2="23.0904" gradientUnits="userSpaceOnUse">
<stop stop-color="#7F6157"/>
<stop offset="0.32" stop-color="#C9B6AC"/>
<stop offset="0.68" stop-color="#BFA373"/>
<stop offset="1" stop-color="#7F6157"/>
</linearGradient>
<linearGradient id="paint3_linear_428_573" x1="0.582068" y1="23.4819" x2="314.696" y2="23.4819" gradientUnits="userSpaceOnUse">
<stop stop-color="#7F6157"/>
<stop offset="0.32" stop-color="#C9B6AC"/>
<stop offset="0.68" stop-color="#BFA373"/>
<stop offset="1" stop-color="#7F6157"/>
</linearGradient>
<linearGradient id="paint4_linear_428_573" x1="0.580577" y1="23.4819" x2="314.694" y2="23.4819" gradientUnits="userSpaceOnUse">
<stop stop-color="#7F6157"/>
<stop offset="0.32" stop-color="#C9B6AC"/>
<stop offset="0.68" stop-color="#BFA373"/>
<stop offset="1" stop-color="#7F6157"/>
</linearGradient>
<linearGradient id="paint5_linear_428_573" x1="0.581639" y1="23.4819" x2="314.695" y2="23.4819" gradientUnits="userSpaceOnUse">
<stop stop-color="#7F6157"/>
<stop offset="0.32" stop-color="#C9B6AC"/>
<stop offset="0.68" stop-color="#BFA373"/>
<stop offset="1" stop-color="#7F6157"/>
</linearGradient>
<linearGradient id="paint6_linear_428_573" x1="0.581163" y1="-3.99961e-06" x2="314.695" y2="-3.99961e-06" gradientUnits="userSpaceOnUse">
<stop stop-color="#7F6157"/>
<stop offset="0.32" stop-color="#C9B6AC"/>
<stop offset="0.68" stop-color="#BFA373"/>
<stop offset="1" stop-color="#7F6157"/>
</linearGradient>
<linearGradient id="paint7_linear_428_573" x1="0.580589" y1="19.6085" x2="314.694" y2="19.6085" gradientUnits="userSpaceOnUse">
<stop stop-color="#7F6157"/>
<stop offset="0.32" stop-color="#C9B6AC"/>
<stop offset="0.68" stop-color="#BFA373"/>
<stop offset="1" stop-color="#7F6157"/>
</linearGradient>
<linearGradient id="paint8_linear_428_573" x1="0.581601" y1="23.4819" x2="314.695" y2="23.4819" gradientUnits="userSpaceOnUse">
<stop stop-color="#7F6157"/>
<stop offset="0.32" stop-color="#C9B6AC"/>
<stop offset="0.68" stop-color="#BFA373"/>
<stop offset="1" stop-color="#7F6157"/>
</linearGradient>
<linearGradient id="paint9_linear_428_573" x1="0.579372" y1="23.8734" x2="314.693" y2="23.8734" gradientUnits="userSpaceOnUse">
<stop stop-color="#7F6157"/>
<stop offset="0.32" stop-color="#C9B6AC"/>
<stop offset="0.68" stop-color="#BFA373"/>
<stop offset="1" stop-color="#7F6157"/>
</linearGradient>
<clipPath id="clip0_428_573">
<rect width="320" height="40" fill="white"/>
</clipPath>
</defs>
</svg>
