<svg xmlns="http://www.w3.org/2000/svg" width="341" height="355" viewBox="0 0 341 355" fill="none">
<style>
@keyframes d1 {
  0%     { stroke-dashoffset: 0 }
  22.53% { stroke-dashoffset: 0 }
  22.54% { stroke-dashoffset: 232 }
  50%    { stroke-dashoffset: 0 }
  100%   { stroke-dashoffset: 0 }
}
@keyframes d2 {
  0%     { stroke-dashoffset: 0 }
  22.53% { stroke-dashoffset: 0 }
  22.54% { stroke-dashoffset: 155 }
  50%    { stroke-dashoffset: 155 }
  64%    { stroke-dashoffset: 0 }
  100%   { stroke-dashoffset: 0 }
}
@keyframes d3 {
  0%     { stroke-dashoffset: 0 }
  22.53% { stroke-dashoffset: 0 }
  22.54% { stroke-dashoffset: 340 }
  64%    { stroke-dashoffset: 340 }
  85%    { stroke-dashoffset: 0 }
  100%   { stroke-dashoffset: 0 }
}

.st { fill: none; stroke: #51463E; stroke-width: 2; stroke-linecap: round; }
.a1 { stroke-dasharray: 232; stroke-dashoffset: 0; animation: d1 7.1s linear infinite; }
.a2 { stroke-dasharray: 155; stroke-dashoffset: 0; animation: d2 7.1s linear infinite; }
.a3 { stroke-dasharray: 340; stroke-dashoffset: 0; animation: d3 7.1s linear infinite; }
</style>

<!-- STATIC: floor left -->
<path class="st" d="M1 265.761H47.6274L57.7912 242.035"/>
<!-- STATIC: right push handle -->
<path class="st" d="M339.821 123.334L324.317 162.798"/>
<!-- STATIC: right handle horizontal -->
<path class="st" d="M324.317 162.798H299"/>
<!-- STATIC: right wheel + base -->
<path class="st" d="M324.317 162.798L260.775 324.597L148.089 324.582"/>
<!-- STATIC: floor + vertical legs -->
<path class="st" d="M148.089 324.582H1"/>
<path class="st" d="M30.4179 324.582V354"/>
<path class="st" d="M236.343 354V324.594"/>
<!-- STATIC: footrest + seat frame -->
<path class="st" d="M236.358 162.798H193.746L160.195 107.066C153.591 96.0786 141.515 89.2537 128.688 89.2537H45.5975L18.8272 142.809"/>

<!-- ANIMATED: Head circle -->
<path class="st a1" d="M155.444 74.5447C175.713 74.5447 192.216 58.056 192.216 37.7724C192.216 17.4887 175.713 1 155.444 1C135.175 1 118.672 17.4887 118.672 37.7724C118.672 58.056 135.175 74.5447 155.444 74.5447Z"/>
<!-- ANIMATED: Body diagonal -->
<path class="st a2" d="M155.444 100.814L96.5 231.7"/>
<!-- ANIMATED: Torso + back + leg -->
<path class="st a3" d="M148.089 324.582V262.554L77.8984 220.575C62.6305 210.941 56.5998 191.996 63.3806 175.463L103.257 89.2537"/>
</svg>
