<svg width="341" height="355" viewBox="0 0 341 355" fill="none" xmlns="http://www.w3.org/2000/svg">
<path d="M1 265.761H47.6274L57.7912 242.035M339.821 123.334L324.317 162.798M324.317 162.798H299M324.317 162.798L260.775 324.597L148.089 324.582M148.089 324.582V262.554L77.8984 220.575C62.6305 210.941 56.5998 191.996 63.3806 175.463L103.257 89.2537M148.089 324.582H1M236.358 162.798H193.746L160.195 107.066C153.591 96.0786 141.515 89.2537 128.688 89.2537H45.5975L18.8272 142.809M30.4179 324.582V354M236.343 354V324.594M155.444 100.814L96.5 231.7M155.444 74.5447C175.713 74.5447 192.216 58.056 192.216 37.7724C192.216 17.4887 175.713 1 155.444 1C135.175 1 118.672 17.4887 118.672 37.7724C118.672 58.056 135.175 74.5447 155.444 74.5447Z" stroke="#51463E" stroke-width="2" stroke-linecap="round"/>
</svg>
