<svg width="340" height="284" viewBox="0 0 340 284" fill="none" xmlns="http://www.w3.org/2000/svg">
<path d="M279.504 283C279.281 280.747 279.504 267.704 279.504 265.5M59.6265 266.154C59.6265 268.84 59.6634 280.351 59.6267 283" stroke="#51463E" stroke-width="2" stroke-linecap="round"/>
<path d="M15.9179 140.5C15.924 167.92 15.6547 238.011 15.7432 265.431C83.6144 265.416 255.358 265.529 323.229 265.431C323.211 239.137 323.229 167.294 323.229 141" stroke="#51463E" stroke-width="2" stroke-linecap="round"/>
<path d="M322.441 140.534L11.2403 140.531C9.53058 140.531 7.76281 140.396 6.12328 139.951C2.71599 139.03 0.66123 135.791 1.04592 132.362C1.43978 128.841 4.34636 126.053 7.86662 125.841C8.52609 125.801 9.18862 125.823 9.85115 125.823H169.53L169.533 125.82C222.963 125.82 276.393 125.823 329.822 125.805C332.045 125.801 334.072 126.201 335.721 127.794C338.005 130.001 338.603 132.669 337.654 135.659C336.787 138.382 334.124 140.341 331.208 140.534C330.702 140.568 330.192 140.552 329.682 140.552L322.441 140.534Z" stroke="#51463E" stroke-width="2" stroke-linecap="round"/>
<path d="M179.168 96.6819C174.346 90.7517 170.076 84.4008 167.445 76.8708C164.553 68.6012 164.565 60.2538 167.346 52.0191C169.259 46.3488 171.488 40.8018 173.763 35.295C177.934 25.2005 177.669 15.1837 173.771 5.10264C173.277 3.82978 172.924 2.36933 172.936 1" stroke="#51463E" stroke-width="2" stroke-linecap="round"/>
<path d="M250.804 96.6819C245.612 90.7517 241.013 84.4008 238.18 76.8708C235.065 68.6012 235.078 60.2538 238.073 52.0191C240.133 46.3488 242.534 40.8018 244.984 35.295C249.476 25.2005 249.19 15.1837 244.992 5.10264C244.461 3.82978 244.081 2.36933 244.094 1" stroke="#51463E" stroke-width="2" stroke-linecap="round"/>
<path d="M108.6 96.6819C103.408 90.7517 98.8091 84.4008 95.9759 76.8708C92.8615 68.6012 92.8745 60.2538 95.8691 52.0191C97.9289 46.3488 100.33 40.8018 102.78 35.295C107.272 25.2005 106.986 15.1837 102.788 5.10264C102.257 3.82978 101.877 2.36933 101.89 1" stroke="#51463E" stroke-width="2" stroke-linecap="round"/>
</svg>
