<svg width="351" height="315" viewBox="0 0 351 315" fill="none" xmlns="http://www.w3.org/2000/svg">
<path d="M143.319 106.742C140.71 106.79 138.101 106.506 135.492 106.56C124.461 106.802 114.58 110.1 106.452 117.882C101.174 122.934 97.6255 129.082 95.4084 136.004C90.3052 151.912 85.0153 167.771 80.2556 183.788C74.7067 202.449 63.8075 216.366 45.9737 224.341C39.7559 227.119 33.3093 229.448 26.8264 231.536C21.6811 233.188 16.331 234.216 11.0471 235.408C2.11812 237.423 -1.79809 246.149 3.19056 253.095C5.39569 256.163 8.59494 258.033 12.2099 257.706C19.5664 257.04 27.0192 256.393 34.1588 254.614C50.2514 250.608 65.7174 244.811 80.4846 237.06C95.1854 229.345 104.723 217.788 108.591 201.602C109.808 196.513 110.796 191.37 111.73 186.221C112.236 183.455 113.815 181.713 116.164 181.87C118.568 182.027 120.02 183.77 119.954 186.729C119.586 203.363 120.382 220.432 119.954 237.06" stroke="#51463E" stroke-width="2" stroke-linecap="round"/>
<path d="M150.51 264.06C159.703 270.028 164.311 273.116 176.503 281.895C187.902 290.103 198.304 297.093 210.904 301.769C231.335 309.354 252.342 313.85 274.199 313.806C281.041 313.794 287.771 312.935 294.222 310.533C307.973 305.407 316.146 293.758 315.743 279.97C315.346 266.345 307.095 256.026 292.802 251.58C279.448 247.425 265.965 248.048 252.487 250.973C230.871 255.667 211.217 265.21 191.965 275.742C191.233 276.147 190.54 276.663 189.763 276.949" stroke="#51463E" stroke-width="2" stroke-linecap="round"/>
<path d="M231.242 236.419C230.916 219.985 230.603 203.557 230.314 187.123C230.254 183.789 231.724 181.81 234.339 181.84C237.2 181.876 238.038 183.789 238.568 186.372C239.93 192.974 241.358 199.587 243.201 206.068C246.961 219.265 255.287 228.813 267.187 235.403C286.96 246.349 307.951 253.791 330.232 257.458C332.973 257.912 335.853 257.924 338.624 257.658C344.348 257.107 348.572 252.866 349.041 247.626C349.529 242.143 346.113 237.466 340.347 235.772C330.629 232.922 320.724 230.598 311.235 227.125C298.414 222.436 286.822 215.453 279.243 203.575C276.091 198.631 273.627 193.083 271.766 187.504C266.259 170.985 261.24 154.302 255.962 137.705C249.377 117.005 234.839 106.428 213.227 106.531C211.323 106.543 209.407 106.76 207.51 106.676" stroke="#51463E" stroke-width="2" stroke-linecap="round"/>
<path d="M189.12 299.978C181.68 295.913 175.073 290.204 168.421 284.82C154.535 273.581 138.76 265.946 122.242 259.669C108.105 254.297 93.7278 249.8 78.4896 248.963C69.7413 248.486 61.1775 249.485 53.061 253.017C40.1761 258.619 33.2502 269.381 33.8427 282.704C34.4017 295.217 43.055 306.064 55.7665 310.347C67.2314 314.215 79.0262 314.249 90.8713 313.435C115.333 311.745 138.788 305.766 161.422 296.391" stroke="#51463E" stroke-width="2" stroke-linecap="round"/>
<path d="M175.438 227.708C180.017 222.825 184.554 218.142 188.867 213.259C189.759 212.248 190.356 210.403 190.157 209.084C187.343 190.374 184.379 171.683 181.427 152.998C179.987 143.879 178.498 134.772 177.022 125.599H173.847C171.829 137.731 169.78 149.706 167.846 161.705C165.274 177.692 162.761 193.69 160.327 209.695C160.177 210.687 160.592 212.097 161.261 212.823C165.828 217.773 170.533 222.595 175.432 227.714L175.438 227.708ZM166.714 109.399C168.696 114.409 170.401 119.068 172.401 123.6C173.371 125.803 177.54 125.773 178.498 123.582C180.481 119.038 182.192 114.379 184.156 109.405L166.714 109.399Z" stroke="#51463E" stroke-width="2"/>
<path d="M218.348 44.6452C218.444 69.8352 200.177 88.5446 175.378 88.6656C151.411 88.7806 132.462 69.7202 132.414 45.444C132.366 20.1391 150.857 1.03029 175.42 1.00004C200.092 0.969783 218.258 19.4311 218.348 44.6452Z" stroke="#51463E" stroke-width="2"/>
</svg>
