<svg width="356" height="358" viewBox="0 0 356 358" fill="none" xmlns="http://www.w3.org/2000/svg">
<path d="M36.9313 221.608L96.2873 336L60.387 356C37.3653 311.58 24.3674 284.688 1.3457 240.268L36.9313 221.608Z" stroke="#51463E" stroke-width="2"/>
<path d="M209.898 255.155L315.9 199.939C319.666 197.965 323.889 196.923 328.105 196.923C330.828 196.923 333.537 197.344 336.17 198.179C342.961 200.328 348.511 204.987 351.781 211.297C355.051 217.608 355.675 224.845 353.538 231.68C351.401 238.508 346.764 244.08 340.488 247.374L195.607 323.294C191.43 325.482 186.893 326.551 181.737 326.551C177.907 326.551 173.619 325.994 167.82 324.744L110.312 312.337C108.709 311.994 106.59 311.593 104.465 311.593L104.453 311.599C102.091 311.599 100 312.091 98.0694 313.1L87.7762 318.586M46.1787 237.366L102.831 208.178C106.519 206.243 110.125 205.343 114.181 205.343C114.573 205.343 114.979 205.349 115.391 205.369L193.096 208.747C200.17 209.058 206.718 212.139 211.52 217.414C216.342 222.689 218.826 229.511 218.517 236.624C218.208 243.744 215.151 250.32 209.898 255.155C204.961 259.705 198.582 262.208 191.939 262.208C191.559 262.208 191.172 262.203 190.792 262.183L138.511 259.911" stroke="#51463E" stroke-width="2" stroke-linecap="round"/>
<path d="M276.4 173V154.004C276.4 116.588 246.134 86.1558 208.923 86.1558C171.711 86.1558 141.442 116.594 141.442 154.004V173" stroke="#51463E" stroke-width="2"/>
<path d="M276.699 172C236.29 172 180.856 172 140.447 172" stroke="#51463E" stroke-width="2"/>
<path d="M177.783 31.8019C177.783 14.8186 191.528 1 208.419 1C225.309 1 239.051 14.8186 239.051 31.8019C239.051 48.7852 225.309 62.6038 208.419 62.6038C191.528 62.6038 177.783 48.7852 177.783 31.8019Z" stroke="#51463E" stroke-width="2"/>
</svg>
