<svg width="314" height="351" viewBox="0 0 314 351" fill="none" xmlns="http://www.w3.org/2000/svg">
<path d="M225.396 182.801C235.112 162.426 249.42 145.746 266.883 131.867C278.477 122.656 290.778 114.352 302.826 105.729C308.601 101.591 311.915 96.2128 312.038 88.9905L312.059 88.9832C312.182 80.6866 307.569 73.6167 299.967 70.4519C293.745 67.8606 287.804 68.7824 281.841 71.5552C248.337 87.154 214.683 102.412 181.338 118.337C165.327 125.988 149.856 126.561 133.78 119.027C111.978 108.807 90.0039 98.9566 68.116 88.9324C55.2013 83.0239 42.3515 76.9629 29.3935 71.1633C16.3849 65.3419 2.8277 72.8691 1.16012 86.8782C0.178339 95.1022 3.77338 101.432 10.4293 106.056C20.0161 112.726 29.8266 119.107 39.2329 126.031C57.7496 139.663 73.819 155.668 85.1311 176.029C86.5388 178.562 87.7949 181.175 89.1232 183.752" stroke="#51463E" stroke-width="2" stroke-linecap="round"/>
<path d="M157.364 208.192C165.767 199.648 175.462 194.335 186.984 192.934C219.354 189 246.677 214.884 244.995 247.78C244.158 264.199 237.415 278.136 225.728 289.169C204.605 309.123 182.927 328.474 161.421 348.022C158.548 350.635 155.848 350.664 153.026 348.08C130.827 327.69 108.153 307.78 86.7195 286.607C71.4298 271.501 65.799 252.448 71.3359 230.94C81.0959 193.043 127.225 179.723 155.523 206.602C156.036 207.088 156.592 207.538 157.35 208.192H157.364Z" stroke="#51463E" stroke-width="2"/>
<path d="M106.832 51.8407C106.998 23.3651 129.543 0.805285 157.617 1.00127C185.468 1.19725 207.529 24.0619 207.32 52.4867C207.11 80.4252 184.587 102.462 156.383 102.31C129.066 102.165 106.666 79.3509 106.832 51.8334V51.8407Z" stroke="#51463E" stroke-width="2"/>
<path d="M180.261 270.064C177.958 270.064 136.514 270.057 134.42 270.064M134.42 270.064C129.851 270.093 138.99 270.1 134.42 270.064ZM156.855 292.072C156.855 285.656 156.848 253.086 156.855 247.069" stroke="#51463E" stroke-width="2" stroke-linecap="round"/>
</svg>
